solid exported_solid
  facet normal 0.000000 -1.000000 0.000000
    outer loop
      vertex 0.000000 1.000000 4.000000
      vertex -1.000000 1.000000 0.000000
      vertex 1.000000 1.000000 0.000000
    endloop
  endfacet
  facet normal 0.000000 -1.000000 0.000000
    outer loop
      vertex 0.000000 1.000000 4.000000
      vertex 1.000000 1.000000 0.000000
      vertex 1.000000 1.000000 3.000000
    endloop
  endfacet
  facet normal 0.000000 -1.000000 0.000000
    outer loop
      vertex 0.000000 1.000000 4.000000
      vertex 1.000000 1.000000 3.000000
      vertex 4.000000 1.000000 3.000000
    endloop
  endfacet
  facet normal 0.000000 -1.000000 0.000000
    outer loop
      vertex 0.000000 1.000000 4.000000
      vertex 4.000000 1.000000 3.000000
      vertex 4.000000 1.000000 5.000000
    endloop
  endfacet
  facet normal 0.000000 -1.000000 0.000000
    outer loop
      vertex 0.000000 1.000000 4.000000
      vertex 4.000000 1.000000 5.000000
      vertex 1.000000 1.000000 5.000000
    endloop
  endfacet
  facet normal 0.000000 -1.000000 0.000000
    outer loop
      vertex 0.000000 1.000000 4.000000
      vertex 1.000000 1.000000 5.000000
      vertex 1.000000 1.000000 8.000000
    endloop
  endfacet
  facet normal 0.000000 -1.000000 0.000000
    outer loop
      vertex 0.000000 1.000000 4.000000
      vertex 1.000000 1.000000 8.000000
      vertex -1.000000 1.000000 8.000000
    endloop
  endfacet
  facet normal 0.000000 -1.000000 0.000000
    outer loop
      vertex 0.000000 1.000000 4.000000
      vertex -1.000000 1.000000 8.000000
      vertex -1.000000 1.000000 5.000000
    endloop
  endfacet
  facet normal 0.000000 -1.000000 0.000000
    outer loop
      vertex 0.000000 1.000000 4.000000
      vertex -1.000000 1.000000 5.000000
      vertex -4.000000 1.000000 5.000000
    endloop
  endfacet
  facet normal 0.000000 -1.000000 0.000000
    outer loop
      vertex 0.000000 1.000000 4.000000
      vertex -4.000000 1.000000 5.000000
      vertex -4.000000 1.000000 3.000000
    endloop
  endfacet
  facet normal 0.000000 -1.000000 0.000000
    outer loop
      vertex 0.000000 1.000000 4.000000
      vertex -4.000000 1.000000 3.000000
      vertex -1.000000 1.000000 3.000000
    endloop
  endfacet
  facet normal 0.000000 -1.000000 0.000000
    outer loop
      vertex 0.000000 1.000000 4.000000
      vertex -1.000000 1.000000 3.000000
      vertex -1.000000 1.000000 0.000000
    endloop
  endfacet
  facet normal 0.000000 1.000000 0.000000
    outer loop
      vertex 0.000000 -1.000000 4.000000
      vertex -1.000000 -1.000000 3.000000
      vertex -4.000000 -1.000000 3.000000
    endloop
  endfacet
  facet normal 0.000000 1.000000 0.000000
    outer loop
      vertex 0.000000 -1.000000 4.000000
      vertex -4.000000 -1.000000 3.000000
      vertex -4.000000 -1.000000 5.000000
    endloop
  endfacet
  facet normal 0.000000 1.000000 0.000000
    outer loop
      vertex 0.000000 -1.000000 4.000000
      vertex -4.000000 -1.000000 5.000000
      vertex -1.000000 -1.000000 5.000000
    endloop
  endfacet
  facet normal 0.000000 1.000000 0.000000
    outer loop
      vertex 0.000000 -1.000000 4.000000
      vertex -1.000000 -1.000000 5.000000
      vertex -1.000000 -1.000000 8.000000
    endloop
  endfacet
  facet normal 0.000000 1.000000 0.000000
    outer loop
      vertex 0.000000 -1.000000 4.000000
      vertex -1.000000 -1.000000 8.000000
      vertex 1.000000 -1.000000 8.000000
    endloop
  endfacet
  facet normal 0.000000 1.000000 0.000000
    outer loop
      vertex 0.000000 -1.000000 4.000000
      vertex 1.000000 -1.000000 8.000000
      vertex 1.000000 -1.000000 5.000000
    endloop
  endfacet
  facet normal 0.000000 1.000000 0.000000
    outer loop
      vertex 0.000000 -1.000000 4.000000
      vertex 1.000000 -1.000000 5.000000
      vertex 4.000000 -1.000000 5.000000
    endloop
  endfacet
  facet normal 0.000000 1.000000 0.000000
    outer loop
      vertex 0.000000 -1.000000 4.000000
      vertex 4.000000 -1.000000 5.000000
      vertex 4.000000 -1.000000 3.000000
    endloop
  endfacet
  facet normal 0.000000 1.000000 0.000000
    outer loop
      vertex 0.000000 -1.000000 4.000000
      vertex 4.000000 -1.000000 3.000000
      vertex 1.000000 -1.000000 3.000000
    endloop
  endfacet
  facet normal 0.000000 1.000000 0.000000
    outer loop
      vertex 0.000000 -1.000000 4.000000
      vertex 1.000000 -1.000000 3.000000
      vertex 1.000000 -1.000000 0.000000
    endloop
  endfacet
  facet normal 0.000000 1.000000 0.000000
    outer loop
      vertex 0.000000 -1.000000 4.000000
      vertex 1.000000 -1.000000 0.000000
      vertex -1.000000 -1.000000 0.000000
    endloop
  endfacet
  facet normal 0.000000 1.000000 0.000000
    outer loop
      vertex 0.000000 -1.000000 4.000000
      vertex -1.000000 -1.000000 0.000000
      vertex -1.000000 -1.000000 3.000000
    endloop
  endfacet
  facet normal 0.000000 0.000000 1.000000
    outer loop
      vertex 0.000000 0.000000 0.000000
      vertex -1.000000 -1.000000 0.000000
      vertex 1.000000 -1.000000 0.000000
    endloop
  endfacet
  facet normal 0.000000 0.000000 1.000000
    outer loop
      vertex 0.000000 0.000000 0.000000
      vertex 1.000000 -1.000000 0.000000
      vertex 1.000000 1.000000 0.000000
    endloop
  endfacet
  facet normal 0.000000 0.000000 1.000000
    outer loop
      vertex 0.000000 0.000000 0.000000
      vertex 1.000000 1.000000 0.000000
      vertex -1.000000 1.000000 0.000000
    endloop
  endfacet
  facet normal 0.000000 0.000000 1.000000
    outer loop
      vertex 0.000000 0.000000 0.000000
      vertex -1.000000 1.000000 0.000000
      vertex -1.000000 -1.000000 0.000000
    endloop
  endfacet
  facet normal -1.000000 0.000000 0.000000
    outer loop
      vertex 1.000000 0.000000 1.500000
      vertex 1.000000 -1.000000 0.000000
      vertex 1.000000 -1.000000 3.000000
    endloop
  endfacet
  facet normal -1.000000 0.000000 0.000000
    outer loop
      vertex 1.000000 0.000000 1.500000
      vertex 1.000000 -1.000000 3.000000
      vertex 1.000000 1.000000 3.000000
    endloop
  endfacet
  facet normal -1.000000 0.000000 0.000000
    outer loop
      vertex 1.000000 0.000000 1.500000
      vertex 1.000000 1.000000 3.000000
      vertex 1.000000 1.000000 0.000000
    endloop
  endfacet
  facet normal -1.000000 0.000000 0.000000
    outer loop
      vertex 1.000000 0.000000 1.500000
      vertex 1.000000 1.000000 0.000000
      vertex 1.000000 -1.000000 0.000000
    endloop
  endfacet
  facet normal 0.000000 0.000000 1.000000
    outer loop
      vertex 2.500000 0.000000 3.000000
      vertex 1.000000 -1.000000 3.000000
      vertex 4.000000 -1.000000 3.000000
    endloop
  endfacet
  facet normal 0.000000 0.000000 1.000000
    outer loop
      vertex 2.500000 0.000000 3.000000
      vertex 4.000000 -1.000000 3.000000
      vertex 4.000000 1.000000 3.000000
    endloop
  endfacet
  facet normal 0.000000 0.000000 1.000000
    outer loop
      vertex 2.500000 0.000000 3.000000
      vertex 4.000000 1.000000 3.000000
      vertex 1.000000 1.000000 3.000000
    endloop
  endfacet
  facet normal 0.000000 0.000000 1.000000
    outer loop
      vertex 2.500000 0.000000 3.000000
      vertex 1.000000 1.000000 3.000000
      vertex 1.000000 -1.000000 3.000000
    endloop
  endfacet
  facet normal -1.000000 0.000000 0.000000
    outer loop
      vertex 4.000000 0.000000 4.000000
      vertex 4.000000 -1.000000 3.000000
      vertex 4.000000 -1.000000 5.000000
    endloop
  endfacet
  facet normal -1.000000 0.000000 0.000000
    outer loop
      vertex 4.000000 0.000000 4.000000
      vertex 4.000000 -1.000000 5.000000
      vertex 4.000000 1.000000 5.000000
    endloop
  endfacet
  facet normal -1.000000 0.000000 0.000000
    outer loop
      vertex 4.000000 0.000000 4.000000
      vertex 4.000000 1.000000 5.000000
      vertex 4.000000 1.000000 3.000000
    endloop
  endfacet
  facet normal -1.000000 0.000000 0.000000
    outer loop
      vertex 4.000000 0.000000 4.000000
      vertex 4.000000 1.000000 3.000000
      vertex 4.000000 -1.000000 3.000000
    endloop
  endfacet
  facet normal 0.000000 0.000000 -1.000000
    outer loop
      vertex 2.500000 0.000000 5.000000
      vertex 4.000000 -1.000000 5.000000
      vertex 1.000000 -1.000000 5.000000
    endloop
  endfacet
  facet normal 0.000000 0.000000 -1.000000
    outer loop
      vertex 2.500000 0.000000 5.000000
      vertex 1.000000 -1.000000 5.000000
      vertex 1.000000 1.000000 5.000000
    endloop
  endfacet
  facet normal 0.000000 0.000000 -1.000000
    outer loop
      vertex 2.500000 0.000000 5.000000
      vertex 1.000000 1.000000 5.000000
      vertex 4.000000 1.000000 5.000000
    endloop
  endfacet
  facet normal 0.000000 0.000000 -1.000000
    outer loop
      vertex 2.500000 0.000000 5.000000
      vertex 4.000000 1.000000 5.000000
      vertex 4.000000 -1.000000 5.000000
    endloop
  endfacet
  facet normal -1.000000 0.000000 0.000000
    outer loop
      vertex 1.000000 0.000000 6.500000
      vertex 1.000000 -1.000000 5.000000
      vertex 1.000000 -1.000000 8.000000
    endloop
  endfacet
  facet normal -1.000000 0.000000 0.000000
    outer loop
      vertex 1.000000 0.000000 6.500000
      vertex 1.000000 -1.000000 8.000000
      vertex 1.000000 1.000000 8.000000
    endloop
  endfacet
  facet normal -1.000000 0.000000 0.000000
    outer loop
      vertex 1.000000 0.000000 6.500000
      vertex 1.000000 1.000000 8.000000
      vertex 1.000000 1.000000 5.000000
    endloop
  endfacet
  facet normal -1.000000 0.000000 0.000000
    outer loop
      vertex 1.000000 0.000000 6.500000
      vertex 1.000000 1.000000 5.000000
      vertex 1.000000 -1.000000 5.000000
    endloop
  endfacet
  facet normal 0.000000 0.000000 -1.000000
    outer loop
      vertex 0.000000 0.000000 8.000000
      vertex 1.000000 -1.000000 8.000000
      vertex -1.000000 -1.000000 8.000000
    endloop
  endfacet
  facet normal 0.000000 0.000000 -1.000000
    outer loop
      vertex 0.000000 0.000000 8.000000
      vertex -1.000000 -1.000000 8.000000
      vertex -1.000000 1.000000 8.000000
    endloop
  endfacet
  facet normal 0.000000 0.000000 -1.000000
    outer loop
      vertex 0.000000 0.000000 8.000000
      vertex -1.000000 1.000000 8.000000
      vertex 1.000000 1.000000 8.000000
    endloop
  endfacet
  facet normal 0.000000 0.000000 -1.000000
    outer loop
      vertex 0.000000 0.000000 8.000000
      vertex 1.000000 1.000000 8.000000
      vertex 1.000000 -1.000000 8.000000
    endloop
  endfacet
  facet normal 1.000000 0.000000 0.000000
    outer loop
      vertex -1.000000 0.000000 6.500000
      vertex -1.000000 -1.000000 8.000000
      vertex -1.000000 -1.000000 5.000000
    endloop
  endfacet
  facet normal 1.000000 0.000000 0.000000
    outer loop
      vertex -1.000000 0.000000 6.500000
      vertex -1.000000 -1.000000 5.000000
      vertex -1.000000 1.000000 5.000000
    endloop
  endfacet
  facet normal 1.000000 0.000000 0.000000
    outer loop
      vertex -1.000000 0.000000 6.500000
      vertex -1.000000 1.000000 5.000000
      vertex -1.000000 1.000000 8.000000
    endloop
  endfacet
  facet normal 1.000000 0.000000 0.000000
    outer loop
      vertex -1.000000 0.000000 6.500000
      vertex -1.000000 1.000000 8.000000
      vertex -1.000000 -1.000000 8.000000
    endloop
  endfacet
  facet normal 0.000000 0.000000 -1.000000
    outer loop
      vertex -2.500000 0.000000 5.000000
      vertex -1.000000 -1.000000 5.000000
      vertex -4.000000 -1.000000 5.000000
    endloop
  endfacet
  facet normal 0.000000 0.000000 -1.000000
    outer loop
      vertex -2.500000 0.000000 5.000000
      vertex -4.000000 -1.000000 5.000000
      vertex -4.000000 1.000000 5.000000
    endloop
  endfacet
  facet normal 0.000000 0.000000 -1.000000
    outer loop
      vertex -2.500000 0.000000 5.000000
      vertex -4.000000 1.000000 5.000000
      vertex -1.000000 1.000000 5.000000
    endloop
  endfacet
  facet normal 0.000000 0.000000 -1.000000
    outer loop
      vertex -2.500000 0.000000 5.000000
      vertex -1.000000 1.000000 5.000000
      vertex -1.000000 -1.000000 5.000000
    endloop
  endfacet
  facet normal 1.000000 0.000000 0.000000
    outer loop
      vertex -4.000000 0.000000 4.000000
      vertex -4.000000 -1.000000 5.000000
      vertex -4.000000 -1.000000 3.000000
    endloop
  endfacet
  facet normal 1.000000 0.000000 0.000000
    outer loop
      vertex -4.000000 0.000000 4.000000
      vertex -4.000000 -1.000000 3.000000
      vertex -4.000000 1.000000 3.000000
    endloop
  endfacet
  facet normal 1.000000 0.000000 0.000000
    outer loop
      vertex -4.000000 0.000000 4.000000
      vertex -4.000000 1.000000 3.000000
      vertex -4.000000 1.000000 5.000000
    endloop
  endfacet
  facet normal 1.000000 0.000000 0.000000
    outer loop
      vertex -4.000000 0.000000 4.000000
      vertex -4.000000 1.000000 5.000000
      vertex -4.000000 -1.000000 5.000000
    endloop
  endfacet
  facet normal 0.000000 0.000000 1.000000
    outer loop
      vertex -2.500000 0.000000 3.000000
      vertex -4.000000 -1.000000 3.000000
      vertex -1.000000 -1.000000 3.000000
    endloop
  endfacet
  facet normal 0.000000 0.000000 1.000000
    outer loop
      vertex -2.500000 0.000000 3.000000
      vertex -1.000000 -1.000000 3.000000
      vertex -1.000000 1.000000 3.000000
    endloop
  endfacet
  facet normal 0.000000 0.000000 1.000000
    outer loop
      vertex -2.500000 0.000000 3.000000
      vertex -1.000000 1.000000 3.000000
      vertex -4.000000 1.000000 3.000000
    endloop
  endfacet
  facet normal 0.000000 0.000000 1.000000
    outer loop
      vertex -2.500000 0.000000 3.000000
      vertex -4.000000 1.000000 3.000000
      vertex -4.000000 -1.000000 3.000000
    endloop
  endfacet
  facet normal 1.000000 0.000000 0.000000
    outer loop
      vertex -1.000000 0.000000 1.500000
      vertex -1.000000 -1.000000 3.000000
      vertex -1.000000 -1.000000 0.000000
    endloop
  endfacet
  facet normal 1.000000 0.000000 0.000000
    outer loop
      vertex -1.000000 0.000000 1.500000
      vertex -1.000000 -1.000000 0.000000
      vertex -1.000000 1.000000 0.000000
    endloop
  endfacet
  facet normal 1.000000 0.000000 0.000000
    outer loop
      vertex -1.000000 0.000000 1.500000
      vertex -1.000000 1.000000 0.000000
      vertex -1.000000 1.000000 3.000000
    endloop
  endfacet
  facet normal 1.000000 0.000000 0.000000
    outer loop
      vertex -1.000000 0.000000 1.500000
      vertex -1.000000 1.000000 3.000000
      vertex -1.000000 -1.000000 3.000000
    endloop
  endfacet
endsolid exported_solid
