solid exported_solid
  facet normal 0.000000 -1.000000 0.000000
    outer loop
      vertex 14.000000 -12.000000 12.124355
      vertex 7.000000 -12.000000 24.248711
      vertex -7.000000 -12.000000 24.248711
    endloop
  endfacet
  facet normal 0.000000 -1.000000 0.000000
    outer loop
      vertex 14.000000 -12.000000 12.124355
      vertex -7.000000 -12.000000 24.248711
      vertex -14.000000 -12.000000 12.124355
    endloop
  endfacet
  facet normal 0.000000 -1.000000 0.000000
    outer loop
      vertex 14.000000 -12.000000 12.124355
      vertex -14.000000 -12.000000 12.124355
      vertex -7.000000 -12.000000 0.000000
    endloop
  endfacet
  facet normal 0.000000 -1.000000 0.000000
    outer loop
      vertex 14.000000 -12.000000 12.124355
      vertex -7.000000 -12.000000 0.000000
      vertex 7.000000 -12.000000 0.000000
    endloop
  endfacet
  facet normal 0.772988 0.450910 0.446285
    outer loop
      vertex 0.000000 12.000000 12.124355
      vertex 7.000000 -12.000000 24.248711
      vertex 14.000000 -12.000000 12.124355
    endloop
  endfacet
  facet normal 0.000000 0.450910 0.892570
    outer loop
      vertex 0.000000 12.000000 12.124355
      vertex -7.000000 -12.000000 24.248711
      vertex 7.000000 -12.000000 24.248711
    endloop
  endfacet
  facet normal -0.772988 0.450910 0.446285
    outer loop
      vertex 0.000000 12.000000 12.124355
      vertex -14.000000 -12.000000 12.124355
      vertex -7.000000 -12.000000 24.248711
    endloop
  endfacet
  facet normal -0.772988 0.450910 -0.446285
    outer loop
      vertex 0.000000 12.000000 12.124355
      vertex -7.000000 -12.000000 0.000000
      vertex -14.000000 -12.000000 12.124355
    endloop
  endfacet
  facet normal 0.000000 0.450910 -0.892570
    outer loop
      vertex 0.000000 12.000000 12.124355
      vertex 7.000000 -12.000000 0.000000
      vertex -7.000000 -12.000000 0.000000
    endloop
  endfacet
  facet normal 0.772988 0.450910 -0.446285
    outer loop
      vertex 0.000000 12.000000 12.124355
      vertex 14.000000 -12.000000 12.124355
      vertex 7.000000 -12.000000 0.000000
    endloop
  endfacet
endsolid exported_solid
