solid exported_solid
  facet normal 0.000000 1.000000 0.000000
    outer loop
      vertex 9.192389 12.500000 3.807611
      vertex -0.000000 12.500000 0.000000
      vertex -9.192389 12.500000 3.807611
    endloop
  endfacet
  facet normal 0.000000 1.000000 0.000000
    outer loop
      vertex 9.192389 12.500000 3.807611
      vertex -9.192389 12.500000 3.807611
      vertex -13.000000 12.500000 13.000000
    endloop
  endfacet
  facet normal 0.000000 1.000000 0.000000
    outer loop
      vertex 9.192389 12.500000 3.807611
      vertex -13.000000 12.500000 13.000000
      vertex -9.192389 12.500000 22.192389
    endloop
  endfacet
  facet normal 0.000000 1.000000 0.000000
    outer loop
      vertex 9.192389 12.500000 3.807611
      vertex -9.192389 12.500000 22.192389
      vertex 0.000000 12.500000 26.000000
    endloop
  endfacet
  facet normal 0.000000 1.000000 0.000000
    outer loop
      vertex 9.192389 12.500000 3.807611
      vertex 0.000000 12.500000 26.000000
      vertex 9.192389 12.500000 22.192389
    endloop
  endfacet
  facet normal 0.000000 1.000000 0.000000
    outer loop
      vertex 9.192389 12.500000 3.807611
      vertex 9.192389 12.500000 22.192389
      vertex 13.000000 12.500000 13.000000
    endloop
  endfacet
  facet normal 0.000000 -1.000000 0.000000
    outer loop
      vertex 13.000000 -12.500000 13.000000
      vertex 9.192389 -12.500000 22.192389
      vertex 0.000000 -12.500000 26.000000
    endloop
  endfacet
  facet normal 0.000000 -1.000000 0.000000
    outer loop
      vertex 13.000000 -12.500000 13.000000
      vertex 0.000000 -12.500000 26.000000
      vertex -9.192389 -12.500000 22.192389
    endloop
  endfacet
  facet normal 0.000000 -1.000000 0.000000
    outer loop
      vertex 13.000000 -12.500000 13.000000
      vertex -9.192389 -12.500000 22.192389
      vertex -13.000000 -12.500000 13.000000
    endloop
  endfacet
  facet normal 0.000000 -1.000000 0.000000
    outer loop
      vertex 13.000000 -12.500000 13.000000
      vertex -13.000000 -12.500000 13.000000
      vertex -9.192389 -12.500000 3.807611
    endloop
  endfacet
  facet normal 0.000000 -1.000000 0.000000
    outer loop
      vertex 13.000000 -12.500000 13.000000
      vertex -9.192389 -12.500000 3.807611
      vertex -0.000000 -12.500000 0.000000
    endloop
  endfacet
  facet normal 0.000000 -1.000000 0.000000
    outer loop
      vertex 13.000000 -12.500000 13.000000
      vertex -0.000000 -12.500000 0.000000
      vertex 9.192389 -12.500000 3.807611
    endloop
  endfacet
  facet normal 0.923880 0.000000 0.382683
    outer loop
      vertex 13.000000 12.500000 13.000000
      vertex 9.192389 12.500000 22.192389
      vertex 9.192389 -12.500000 22.192389
    endloop
  endfacet
  facet normal 0.923880 0.000000 0.382683
    outer loop
      vertex 13.000000 12.500000 13.000000
      vertex 9.192389 -12.500000 22.192389
      vertex 13.000000 -12.500000 13.000000
    endloop
  endfacet
  facet normal 0.382683 0.000000 0.923880
    outer loop
      vertex 9.192389 12.500000 22.192389
      vertex 0.000000 12.500000 26.000000
      vertex 0.000000 -12.500000 26.000000
    endloop
  endfacet
  facet normal 0.382683 0.000000 0.923880
    outer loop
      vertex 9.192389 12.500000 22.192389
      vertex 0.000000 -12.500000 26.000000
      vertex 9.192389 -12.500000 22.192389
    endloop
  endfacet
  facet normal -0.382683 0.000000 0.923880
    outer loop
      vertex 0.000000 12.500000 26.000000
      vertex -9.192389 12.500000 22.192389
      vertex -9.192389 -12.500000 22.192389
    endloop
  endfacet
  facet normal -0.382683 0.000000 0.923880
    outer loop
      vertex 0.000000 12.500000 26.000000
      vertex -9.192389 -12.500000 22.192389
      vertex 0.000000 -12.500000 26.000000
    endloop
  endfacet
  facet normal -0.923880 0.000000 0.382683
    outer loop
      vertex -9.192389 12.500000 22.192389
      vertex -13.000000 12.500000 13.000000
      vertex -13.000000 -12.500000 13.000000
    endloop
  endfacet
  facet normal -0.923880 0.000000 0.382683
    outer loop
      vertex -9.192389 12.500000 22.192389
      vertex -13.000000 -12.500000 13.000000
      vertex -9.192389 -12.500000 22.192389
    endloop
  endfacet
  facet normal -0.923880 0.000000 -0.382683
    outer loop
      vertex -13.000000 12.500000 13.000000
      vertex -9.192389 12.500000 3.807611
      vertex -9.192389 -12.500000 3.807611
    endloop
  endfacet
  facet normal -0.923880 0.000000 -0.382683
    outer loop
      vertex -13.000000 12.500000 13.000000
      vertex -9.192389 -12.500000 3.807611
      vertex -13.000000 -12.500000 13.000000
    endloop
  endfacet
  facet normal -0.382683 0.000000 -0.923880
    outer loop
      vertex -9.192389 12.500000 3.807611
      vertex -0.000000 12.500000 0.000000
      vertex -0.000000 -12.500000 0.000000
    endloop
  endfacet
  facet normal -0.382683 0.000000 -0.923880
    outer loop
      vertex -9.192389 12.500000 3.807611
      vertex -0.000000 -12.500000 0.000000
      vertex -9.192389 -12.500000 3.807611
    endloop
  endfacet
  facet normal 0.382683 0.000000 -0.923880
    outer loop
      vertex -0.000000 12.500000 0.000000
      vertex 9.192389 12.500000 3.807611
      vertex 9.192389 -12.500000 3.807611
    endloop
  endfacet
  facet normal 0.382683 0.000000 -0.923880
    outer loop
      vertex -0.000000 12.500000 0.000000
      vertex 9.192389 -12.500000 3.807611
      vertex -0.000000 -12.500000 0.000000
    endloop
  endfacet
  facet normal 0.923880 0.000000 -0.382683
    outer loop
      vertex 9.192389 12.500000 3.807611
      vertex 13.000000 12.500000 13.000000
      vertex 13.000000 -12.500000 13.000000
    endloop
  endfacet
  facet normal 0.923880 0.000000 -0.382683
    outer loop
      vertex 9.192389 12.500000 3.807611
      vertex 13.000000 -12.500000 13.000000
      vertex 9.192389 -12.500000 3.807611
    endloop
  endfacet
endsolid exported_solid
